<svg width="40" height="40" viewBox="0 0 40 40" fill="none" xmlns="http://www.w3.org/2000/svg">
<path d="M35.3517 7.77002C36.2892 8.99836 37.0828 10.3329 37.7165 11.7467L19.7398 25.1767L12.2268 20.4038V14.6617L19.7398 19.4346L35.3517 7.77002Z" fill="#21A038"/>
<path d="M4.55927 19.9996C4.55927 19.7419 4.56547 19.486 4.57787 19.2315L0.0247968 19.0054C0.00929965 19.3352 5.50217e-06 19.6682 5.50217e-06 20.0042C-0.0019317 22.63 0.507688 25.2303 1.49964 27.6559C2.49159 30.0816 3.94634 32.2849 5.78045 34.1394L9.01005 30.8679C7.59823 29.4429 6.47822 27.749 5.7144 25.8839C4.95058 24.0187 4.55802 22.0189 4.55927 19.9996Z" fill="url(#paint0_linear_2999_33)"/>
<path d="M19.7356 4.62042C19.9898 4.62042 20.2423 4.62985 20.4934 4.64241L20.7212 0.0265021C20.3948 0.0107964 20.0662 0.00294452 19.7356 0.00294452C17.1435 -0.000259062 14.5764 0.515474 12.1816 1.52053C9.78671 2.52559 7.61136 4.00017 5.7804 5.85962L9.01 9.13268C10.4162 7.70139 12.0877 6.5659 13.9284 5.79152C15.7691 5.01715 17.7426 4.61915 19.7356 4.62042Z" fill="url(#paint1_linear_2999_33)"/>
<path d="M19.7357 35.3798C19.4815 35.3798 19.2289 35.3798 18.9764 35.3594L18.7485 39.9737C19.076 39.9904 19.4051 39.9989 19.7357 39.9989C22.3267 40.0016 24.8926 39.4855 27.2861 38.4802C29.6797 37.4748 31.8536 36 33.6832 34.1406L30.4598 30.8691C29.0533 32.2997 27.382 33.4345 25.5417 34.2086C23.7014 34.9827 21.7282 35.3808 19.7357 35.3798Z" fill="url(#paint2_linear_2999_33)"/>
<path d="M28.2905 7.30319L32.1275 4.43689C28.6204 1.55876 24.2426 -0.00798939 19.7297 3.06379e-05V4.61908C22.7856 4.61524 25.7706 5.55117 28.2905 7.30319Z" fill="url(#paint3_linear_2999_33)"/>
<path d="M39.4699 20.0001C39.4723 18.7985 39.3686 17.5989 39.1599 16.416L34.9121 19.5886C34.9121 19.7253 34.9121 19.8619 34.9121 20.0001C34.9132 22.1491 34.4687 24.2743 33.6076 26.238C32.7463 28.2017 31.4874 29.9601 29.9127 31.3992L32.9766 34.831C35.0238 32.9579 36.6598 30.6698 37.7784 28.1149C38.8971 25.5599 39.4733 22.7952 39.4699 20.0001Z" fill="#21A038"/>
<path d="M19.7358 35.3802C17.6152 35.3809 15.5181 34.9303 13.5801 34.0575C11.6423 33.1847 9.90692 31.9091 8.48638 30.3135L5.10181 33.4169C6.94978 35.4921 9.20748 37.1503 11.7285 38.2843C14.2495 39.4181 16.9776 40.0024 19.7358 39.9991V35.3802Z" fill="url(#paint4_linear_2999_33)"/>
<path d="M9.55867 8.60016L6.49642 5.16846C4.44858 7.04117 2.81201 9.3292 1.69285 11.8842C0.573697 14.4391 -0.0030512 17.2039 1.21392e-05 19.9993H4.55928C4.55834 17.8505 5.0029 15.7252 5.86412 13.7615C6.72535 11.7978 7.98405 10.0394 9.55867 8.60016Z" fill="url(#paint5_linear_2999_33)"/>
<defs>
<linearGradient id="paint0_linear_2999_33" x1="6.70253" y1="33.563" x2="1.60155" y2="19.013" gradientUnits="userSpaceOnUse">
<stop offset="0.14" stop-color="#F1E813"/>
<stop offset="0.3" stop-color="#E6E418"/>
<stop offset="0.58" stop-color="#C9DA26"/>
<stop offset="0.89" stop-color="#A2CC39"/>
</linearGradient>
<linearGradient id="paint1_linear_2999_33" x1="7.08215" y1="6.67631" x2="19.9553" y2="1.83568" gradientUnits="userSpaceOnUse">
<stop offset="0.06" stop-color="#0FA7DF"/>
<stop offset="0.54" stop-color="#0098F8"/>
<stop offset="0.92" stop-color="#0290EA"/>
</linearGradient>
<linearGradient id="paint2_linear_2999_33" x1="18.4479" y1="37.2111" x2="32.9749" y2="33.9728" gradientUnits="userSpaceOnUse">
<stop offset="0.12" stop-color="#A2CC39"/>
<stop offset="0.28" stop-color="#86C239"/>
<stop offset="0.87" stop-color="#219F38"/>
</linearGradient>
<linearGradient id="paint3_linear_2999_33" x1="18.7814" y1="1.54704" x2="31.2138" y2="5.3327" gradientUnits="userSpaceOnUse">
<stop offset="0.06" stop-color="#0290EA"/>
<stop offset="0.79" stop-color="#0C89CA"/>
</linearGradient>
<linearGradient id="paint4_linear_2999_33" x1="6.24549" y1="32.8546" x2="19.7905" y2="37.8497" gradientUnits="userSpaceOnUse">
<stop offset="0.13" stop-color="#F1E813"/>
<stop offset="0.3" stop-color="#EAE616"/>
<stop offset="0.53" stop-color="#D8DF1F"/>
<stop offset="0.8" stop-color="#BAD52D"/>
<stop offset="0.98" stop-color="#A2CC39"/>
</linearGradient>
<linearGradient id="paint5_linear_2999_33" x1="1.6985" y1="20.5584" x2="7.24536" y2="6.32068" gradientUnits="userSpaceOnUse">
<stop offset="0.07" stop-color="#A2CC39"/>
<stop offset="0.26" stop-color="#81C45E"/>
<stop offset="0.92" stop-color="#0FA7DF"/>
</linearGradient>
</defs>
</svg>
